# xmcd CD database file
#
# Track frame offsets:
#	150
#	24995
#	39057
#	70305
#	96610
#	116590
#	136382
#	158865
#	184397
#	203767
#	218305
#	232390
#	259872
#	274812
#
# Disc length: 4193 seconds
#
# Revision: 0
# Processed by: cddbd v1.5.1PL0 Copyright (c) Steve Scherf et al.
# Submitted via: CDex 1.60beta1
#
DISCID=cc105f0e
DTITLE=Ruth Naomi Floyd - Fan Into Flame
DYEAR=0
DGENRE=Jazz
TTITLE0=In The Beginning God
TTITLE1=Strange Land
TTITLE2=Renewal
TTITLE3=Micah
TTITLE4=Who Among Us...?
TTITLE5=What We Speak
TTITLE6=Prayer For One
TTITLE7=Faith
TTITLE8=September Song
TTITLE9=Strange Land Revisited
TTITLE10=Fan Into Flame
TTITLE11=O', The Deep, Deep Love Of Jesus
TTITLE12=Don't Be Ashamed (To Fan Into Flame The Gift Of God)
TTITLE13=Lord Don't Move That Mountain
EXTD=YEAR: 0
EXTT0=
EXTT1=
EXTT2=
EXTT3=
EXTT4=
EXTT5=
EXTT6=
EXTT7=
EXTT8=
EXTT9=
EXTT10=
EXTT11=
EXTT12=
EXTT13=
PLAYORDER=
